<svg viewBox="0 0 440 455" xmlns="http://www.w3.org/2000/svg"><g fill="none"><path d="m282.703125 400.199219-1.601563.601562-281.00041645.5c-.19880175-95.699219 71.10197945-166 159.19963545-166.101562 35.738281-.257813 70.492188 11.703125 98.5 33.902343.601563.5 1.101563.898438 1.699219 1.398438v58.898438c-.082031 25.484374 8.054688 50.3125 23.203125 70.800781z" fill="#372fff"/><path d="m159.402344 0c52.851562 0 95.699218 42.847656 95.699218 95.699219 0 52.855469-42.847656 95.699219-95.699218 95.699219-52.855469 0-95.699219-42.84375-95.699219-95.699219 0-52.851563 42.84375-95.699219 95.699219-95.699219z" fill="#372fff"/><path d="m159.402344 235.199219h-.199219c-88 .199219-159.3007812 70.5-159.10197945 166.101562l159.30119845-.300781z" fill="#0903b0"/><path d="m159.402344 0c-52.855469 0-95.699219 42.847656-95.699219 95.699219 0 52.855469 42.84375 95.699219 95.699219 95.699219z" fill="#0903b0"/><path d="m434.101562 260.5-86.199218-45.898438c-2.96875-1.621093-6.566406-1.582031-9.5.097657l-83.800782 45.902343c-3.207031 1.765626-5.19959 5.136719-5.19959 8.796876v60c-.066034 27.644531 8.769903 54.570312 25.19959 76.800781 13.558594 18.425781 31.734376 32.949219 52.699219 42.101562l11.601563 5.097657c1.257812.5625 2.625.835937 4 .800781 1.371094-.023438 2.726562-.292969 4-.800781l13.097656-5.597657c23.535156-9.925781 43.636719-26.546875 57.800781-47.800781 14.191407-21.253906 21.742188-46.246094 21.699401-71.800781v-58.800781c-.078307-3.71875-2.136901-7.109376-5.39862-8.898438z" fill="#fa4b6a"/><path d="m331 365.898658c-2.917969-.008033-5.691406-1.285377-7.597656-3.50022l-22.699219-26.597657c-3.589844-4.199219-3.097656-10.511719 1.097656-14.101562 4.199219-3.589844 10.511719-3.097657 14.101563 1.101562l16.300781 19.097657 45.199219-36.796876c4.28125-3.507812 10.59375-2.882812 14.097656 1.398438 3.507812 4.28125 2.882812 10.59375-1.398438 14.101562l-52.800781 43c-1.753906 1.496094-3.992187 2.3125-6.300781 2.297096z" fill="#372fff"/></g></svg>