<svg viewBox="0 0 512 512" xmlns="http://www.w3.org/2000/svg"><g fill="none"><path d="m374.525 90h-75v-75c0-8.401-6.599-15-15-15h-239.525c-24.902 0-45 20.099-45 45v422c0 24.899 20.098 45 45 45h299.525c24.902 0 45-20.101 45-45v-362c0-8.401-6.599-15-15-15z" fill="#c5d0f8"/><path d="m389.525 105v362c0 24.899-20.098 45-45 45h-150v-512h90c8.401 0 15 6.599 15 15v75h75c8.401 0 15 6.599 15 15z" fill="#a6b7f7"/><path d="m389.525 120h-105c-8.291 0-15-6.709-15-15v-105h32.695c11.777 0 23.32 4.775 31.641 13.11l42.568 42.583c8.32 8.35 13.096 19.863 13.096 31.611z" fill="#c5d0f8"/><path d="m498.726 160.8c-16.798-17.1-46.798-17.1-63.6 0l-15.3 15.601-10.8 10.499c-6.002 5.7-6.002 15.3 0 21l21.299 21.301 21.302 21.299c5.398 6 15.601 6 20.999 0l10.8-10.499 15.3-15.601c17.699-16.801 17.699-46.801 0-63.6z" fill="#372fff"/><path d="m327.724 331.8-30.901-30.901c-.597-.599-1.198-.599-1.798 0l-.897.601c-1.802 1.8-3.003 3.9-3.604 6l-21.299 63.9c-2.102 5.999-.3 11.699 3.6 15.3v.298c4.2 3.9 9.899 5.4 15.3 3.301l63.9-21.301c2.102-.601 4.2-1.8 5.999-3.6l.601-.601c.601-.599.601-1.199 0-1.8-9.899-10.197-20.699-20.998-30.901-31.197z" fill="#ffb8a9"/><g fill="#372fff" transform="translate(60 150)"><path d="m224.525 30h-209.525c-19.797 0-19.797-30 0-30h209.525c19.798 0 19.798 30 0 30z"/><path d="m164.525 90h-149.525c-19.797 0-19.797-30 0-30h149.525c19.798 0 19.798 30 0 30z"/><path d="m164.525 150h-149.525c-19.797 0-19.797-30 0-30h149.525c19.798 0 19.798 30 0 30z"/><path d="m164.525 210h-149.525c-19.797 0-19.797-30 0-30h149.525c19.798 0 19.798 30 0 30z"/><path d="m224.525 302h-90c-19.797 0-19.797-30 0-30h90c19.798 0 19.798 30 0 30z"/></g><path d="m327.724 331.8c10.203 10.199 21.002 21 30.901 31.199.601.601.601 1.201 0 1.8l-.601.601c-1.798 1.8-3.896 2.999-5.999 3.6l-63.9 21.301c-5.402 2.098-11.1.599-15.3-3.301v-.3z" fill="#ffa08c"/><path d="m498.726 224.399-15.301 15.601-10.8 10.499c-5.398 6-15.601 6-20.999 0l-21.301-21.299 68.401-68.401c17.699 16.8 17.699 46.8 0 63.6z" fill="#0903b0"/><path d="m483.425 240-10.8 10.499c-59.399 59.101-39.602 39.3-93.003 92.701 0 .599-21.299 21.899-21.599 22.2-1.798 1.8-3.896 2.999-5.999 3.6l-61.501-61.5c.601-2.1 1.802-4.2 3.604-6 .3-.3 21.599-21.601 22.2-21.601 38.998-39 19.797-19.499 92.699-92.999l10.499-10.8z" fill="#fa4b6a"/><path d="m483.425 240-10.8 10.499c-59.399 59.101-39.602 39.3-93.003 92.701 0 .599-21.299 21.899-21.599 22.2-1.798 1.8-3.896 2.999-5.999 3.6l-30.601-30.601 130.204-130.199z" fill="#ff2249"/><g fill="#0903b0" transform="translate(194 150)"><path d="m30.525 210h-30v-30h30c19.798 0 19.798 30 0 30z"/><path d="m30.525 150h-30v-30h30c19.798 0 19.798 30 0 30z"/><path d="m30.525 90h-30v-30h30c19.798 0 19.798 30 0 30z"/><path d="m90.525 302h-90v-30h90c19.798 0 19.798 30 0 30z"/><path d="m90.525 30h-90v-30h90c19.798 0 19.798 30 0 30z"/></g></g></svg>