<svg viewBox="0 0 512 512" xmlns="http://www.w3.org/2000/svg"><g fill="none"><path d="m409.526 502h-307.053l25.075-73.998h256.903z" fill="#4a4a4e"/><path d="m372.997 428.002h-233.994v-155.01c0-64.615 52.382-116.997 116.997-116.997 64.615 0 116.997 52.382 116.997 116.997z" fill="#fa4b6a"/><g fill="#fff" transform="translate(236 219)"><path d="m20 88.006c-11.046 0-19.999-8.954-19.999-19.999v-47.999c0-11.046 8.954-19.999 19.999-19.999 11.046 0 19.999 8.954 19.999 19.999v47.999c0 11.044-8.953 19.999-19.999 19.999z"/><path d="m20 168.003c-11.046 0-19.999-8.954-19.999-19.999 0-11.046 8.954-19.999 19.999-19.999 11.046 0 19.999 8.954 19.999 19.999 0 11.045-8.953 19.999-19.999 19.999z"/></g><g fill="#000"><path d="m393.922 424.793c-1.375-4.06-5.185-6.791-9.471-6.791h-1.455v-145.01c0-70.026-56.97-126.997-126.997-126.997s-126.997 56.97-126.997 126.997v145.01h-1.455c-4.286 0-8.096 2.731-9.471 6.791l-25.074 73.998c-1.035 3.053-.534 6.416 1.344 9.036 1.878 2.619 4.903 4.173 8.127 4.173h307.053c3.224 0 6.249-1.554 8.127-4.173 1.878-2.62 2.379-5.983 1.344-9.036zm-244.919-151.8c0-58.998 47.999-106.997 106.997-106.997s106.997 47.999 106.997 106.997v145.01h-213.994zm-32.582 219.008 18.298-53.999h242.563l18.297 53.999z"/><path d="m256 79.999c5.522 0 10-4.478 10-10v-59.999c0-5.522-4.478-10-10-10s-10 4.478-10 10v59.999c0 5.522 4.477 10 10 10z"/><path d="m256 118.954c2.63 0 5.21-1.061 7.069-2.92 1.86-1.87 2.931-4.44 2.931-7.07 0-2.641-1.07-5.21-2.931-7.08-1.859-1.86-4.439-2.92-7.069-2.92s-5.21 1.06-7.07 2.92c-1.86 1.87-2.93 4.439-2.93 7.08 0 2.63 1.069 5.2 2.93 7.07 1.86 1.859 4.44 2.92 7.07 2.92z"/><path d="m105.504 277.659c0-5.522-4.478-10-10-10h-45.917c-5.522 0-10 4.478-10 10s4.478 10 10 10h45.918c5.521 0 9.999-4.478 9.999-10z"/><path d="m10.007 267.66c-2.63 0-5.21 1.069-7.07 2.93s-2.93 4.44-2.93 7.07 1.069 5.21 2.93 7.069c1.86 1.86 4.44 2.931 7.07 2.931s5.21-1.07 7.069-2.931c1.86-1.859 2.931-4.439 2.931-7.069s-1.07-5.21-2.931-7.07c-1.859-1.861-4.439-2.93-7.069-2.93z"/><path d="m170.195 96.641c1.596 3.851 5.319 6.176 9.243 6.176 1.275 0 2.571-.246 3.823-.764 5.103-2.114 7.525-7.964 5.412-13.066l-13.554-32.721c-2.114-5.102-7.963-7.521-13.066-5.412-5.103 2.114-7.525 7.964-5.412 13.066z"/><path d="m71.15 211.096c3.924 0 7.647-2.325 9.243-6.176 2.113-5.103-.31-10.952-5.412-13.066l-32.721-13.553c-5.104-2.108-10.952.311-13.066 5.412-2.113 5.103.31 10.952 5.412 13.066l32.721 13.554c1.252.516 2.548.763 3.823.763z"/><path d="m466.58 267.66h-45.918c-5.522 0-10 4.478-10 10s4.478 10 10 10h45.918c5.522 0 10-4.478 10-10s-4.478-10-10-10z"/><path d="m509.062 270.59c-1.859-1.86-4.439-2.93-7.069-2.93s-5.21 1.069-7.07 2.93-2.93 4.44-2.93 7.07 1.069 5.21 2.93 7.069c1.86 1.86 4.44 2.931 7.07 2.931s5.21-1.07 7.069-2.931c1.86-1.859 2.931-4.439 2.931-7.069 0-2.631-1.07-5.21-2.931-7.07z"/><path d="m397.474 146.184c2.56 0 5.118-.977 7.071-2.929l49.203-49.204c3.905-3.905 3.905-10.237 0-14.143-3.906-3.904-10.236-3.904-14.143 0l-49.203 49.204c-3.905 3.905-3.905 10.237 0 14.143 1.954 1.953 4.513 2.929 7.072 2.929z"/><path d="m107.454 143.256c1.953 1.952 4.512 2.929 7.071 2.929s5.118-.977 7.071-2.929c3.905-3.905 3.905-10.237 0-14.143l-49.203-49.202c-3.906-3.904-10.236-3.904-14.143 0-3.905 3.905-3.905 10.237 0 14.143z"/><path d="m328.738 102.053c1.252.518 2.548.764 3.823.764 3.924 0 7.647-2.325 9.243-6.176l13.554-32.721c2.113-5.103-.31-10.952-5.412-13.066-5.103-2.108-10.952.311-13.066 5.412l-13.554 32.721c-2.113 5.102.31 10.951 5.412 13.066z"/><path d="m469.739 178.301-32.721 13.554c-5.103 2.114-7.525 7.964-5.412 13.066 1.596 3.851 5.319 6.176 9.243 6.176 1.275 0 2.571-.246 3.823-.764l32.721-13.554c5.103-2.114 7.525-7.964 5.412-13.066-2.114-5.103-7.963-7.522-13.066-5.412z"/><path d="m256 209.008c-16.542 0-29.999 13.458-29.999 29.999v47.999c0 16.542 13.458 29.999 29.999 29.999s29.999-13.458 29.999-29.999v-47.999c0-16.541-13.457-29.999-29.999-29.999zm10 77.998c0 5.514-4.486 10-10 10s-10-4.486-10-10v-47.999c0-5.514 4.486-10 10-10s10 4.486 10 10z"/><path d="m256 337.005c-16.542 0-29.999 13.458-29.999 29.999 0 16.542 13.458 29.999 29.999 29.999s29.999-13.458 29.999-29.999c0-16.542-13.457-29.999-29.999-29.999zm0 39.999c-5.514 0-10-4.486-10-10s4.486-10 10-10 10 4.486 10 10-4.486 10-10 10z"/></g></g></svg>